PathFileType	4	(X/Y/Z)	Patient4_TMGait_0pt7_02_left_20.trc.trc
DataRate	CameraRate	NumFrames	NumMarkers	Units	OrigDataRate	OrigDataStartFrame	OrigNumFrames
84.848484848485	84.848484848485	4	33	mm	84.848484848485	53	       141
Frame#	Time	Sacral			L.Shoulder			Chest			R.Shoulder			Neck			R.ASIS			L.ASIS			R.Thigh.Superior			R.Thigh.Lateral			R.Thigh.Inferior			R.Patella			L.Thigh.Superior			L.Thigh.Lateral			L.Thigh.Inferior			L.Patella			L.Shank.Superior			L.Shank.Lateral			L.Shank.Inferior			R.Shank.Superior			R.Shank.Lateral			R.Shank.Inferior			R.Heel			R.Midfoot.Superior			R.Midfoot.Lateral			R.Toe			L.Heel			L.Midfoot.Lateral			L.Midfoot.Superior			L.Toe			L.Elbow			L.Wrist			R.Elbow			R.Wrist			
		X1	Y1	Z1	X2	Y2	Z2	X3	Y3	Z3	X4	Y4	Z4	X5	Y5	Z5	X6	Y6	Z6	X7	Y7	Z7	X8	Y8	Z8	X9	Y9	Z9	X10	Y10	Z10	X11	Y11	Z11	X12	Y12	Z12	X13	Y13	Z13	X14	Y14	Z14	X15	Y15	Z15	X16	Y16	Z16	X17	Y17	Z17	X18	Y18	Z18	X19	Y19	Z19	X20	Y20	Z20	X21	Y21	Z21	X22	Y22	Z22	X23	Y23	Z23	X24	Y24	Z24	X25	Y25	Z25	X26	Y26	Z26	X27	Y27	Z27	X28	Y28	Z28	X29	Y29	Z29	X30	Y30	Z30	X31	Y31	Z31	X32	Y32	Z32	X33	Y33	Z33	

53	23.262857142857	827.242811021261	1011.219580296344	445.061562574112	1020.577668781467	1432.531755553268	260.761724806430	1124.096640838375	1356.796128788601	419.777932221864	1048.624321756635	1437.840846831178	594.545501085415	1031.865168560872	1493.802493763472	414.955089805111	1050.927223335470	946.863946935026	565.261023835587	1042.694574209712	959.077081264567	291.123360544233	1134.256313027097	778.708251565257	543.881174624389	1093.921704704910	659.302898204542	620.048090659239	1186.512088662443	618.977624015623	544.398473483691	1205.163872973658	505.310856070969	569.273874325066	1098.057053466484	754.163586107744	322.421688360789	1012.419091373982	635.853414371281	266.245400480208	1097.717820815125	560.356785439546	332.005179737151	1099.467876521656	490.215331842212	343.248240720470	1070.744436727429	417.590343997618	334.788731431703	980.702437253173	304.510505127857	282.730597757793	1026.266034212718	192.872165185112	355.757679399515	1126.180906436470	432.187230706060	577.113257602169	1002.457689594621	399.213262674656	636.907128966861	984.765320063795	289.376924646320	590.590514863011	784.474906508100	242.052416581919	562.582344183221	945.263542659192	165.187260905573	602.978060896743	835.263405557795	172.881254375893	633.815725457453	997.455760929772	44.813637621125	623.516114462977	895.332990323442	38.587607950027	395.050440625870	970.116860750228	36.002649467402	314.706485226763	1052.917581289176	96.295185546437	343.468102671585	1182.109286818515	42.903163074926	315.647026391746	1001.266105513585	1084.777606783344	134.302138563958	1133.786202092803	858.642440392141	148.612280660467	1034.487180521504	1090.399778624626	713.068409825469	1259.123808228679	978.742556316482	650.126059628966	
54	23.274642857143	825.503554774180	1011.984123232993	443.032321915132	1021.703322957851	1433.219684451533	260.158914218570	1123.224873248601	1357.266927444535	420.300376661589	1045.972040563485	1438.297734327003	594.288327284327	1031.247600481498	1494.358310801593	414.476591094025	1048.454167172684	947.995174736707	565.195863314408	1041.843864515730	959.430805711074	290.991998557765	1134.522551565653	783.277443770822	543.207283794414	1097.344346731247	663.194271839122	619.620826482013	1190.386025224423	624.668628480660	543.572814064898	1212.122726115132	511.806181206885	568.729688782046	1094.859168740681	753.230959563026	322.751353423863	1008.115104296716	636.010643727131	265.719372478794	1091.824150526900	559.459474340446	332.119181023160	1092.544498067169	489.487532617897	343.427101715639	1063.746999462841	417.187506811160	334.719386899869	973.487528329672	304.396586106504	282.467303164320	1018.334584868117	192.678392011497	355.780634171191	1135.631187556084	436.381108433064	576.744622419957	1013.497413239128	398.450861448547	636.604109084809	1000.098886988815	287.984525460550	590.312504887101	801.736727130326	232.166498981886	562.519694028261	965.978219147884	162.756493549730	603.158416246497	855.622888975032	165.358801377822	633.690209121274	1023.187260891450	44.785721285437	623.390104707046	886.957467196089	38.564389388518	395.014656229627	961.786706339632	35.982389084030	314.671518444870	1044.581939682279	96.275029120731	343.468671857361	1173.784137957285	42.885783568977	315.657141650291	1012.855706282144	1086.692307584587	130.145401181333	1156.081198963479	867.404398295176	146.251053655214	1025.435336845425	1090.803278455820	712.652049493001	1241.718390833369	958.446664666940	657.801307977663	
55	23.286428571429	823.850353796168	1012.685629171179	441.106365354017	1022.979729820700	1433.887280618873	259.680490609254	1122.428087694750	1357.701132219380	420.945580804424	1043.366042464067	1438.734505484207	594.107667876486	1030.655678663115	1494.868091850315	414.101860645195	1046.022542998286	949.047198461068	565.295151263705	1041.095280124832	959.738164233845	291.014133829047	1134.507183541792	787.543334361432	542.789624902310	1100.208020378092	666.815918341034	619.318245780991	1193.557117916898	629.927642500228	542.885920968582	1218.194833037365	518.104486652524	568.345535658777	1091.550099008123	752.264935790622	323.345997413540	1003.765816389918	636.175348662974	265.224174938493	1085.779704851773	558.554303821824	332.287780421866	1085.439764107217	488.764593861731	343.601997272299	1056.618132325427	416.797789611494	334.643462794819	966.185742005260	304.270245527266	282.198136753326	1010.344699986237	192.488855030419	355.796236453444	1144.565055587845	440.324089607642	576.505605285298	1024.451902951044	396.927940051281	636.457086709803	1015.894806325143	285.962263627504	590.186031424947	820.105498673317	220.870037507843	562.643840487989	987.809348157737	159.722212324019	603.478635560344	877.284956567267	156.730803776261	633.675064691188	1050.434510416020	44.527035672180	623.324844213868	878.582578681734	38.539184629004	394.985699302210	953.455701525197	35.956851622614	314.644910851448	1036.244303389632	96.252230324672	343.473440196418	1165.461070822860	42.870586407695	315.674986775452	1024.003392085233	1089.031435822166	126.216804438030	1177.769335708601	877.262793242639	144.423241918416	1017.294396304198	1091.282416270418	712.508537190518	1222.642693059364	939.049348464126	665.761572435652	
56	23.298214285714	822.311148541808	1013.292175938564	439.307345214441	1024.383949087661	1434.500497363699	259.329065411440	1121.710625031277	1358.074621659672	421.704826974922	1040.825901247058	1439.124332441972	594.003165422230	1030.099608879965	1495.310084362717	413.824948401100	1043.663907634722	949.985789835851	565.530742033948	1040.485460911104	960.016467263561	291.152581385258	1134.211272098020	791.398815772860	542.592159591348	1102.458475289317	670.056461098948	619.129835306635	1195.986087172171	634.622724038198	542.348491246010	1223.298738486964	524.067957900292	568.120441621931	1088.168891014313	751.264385339864	324.125018662052	999.375997141271	636.332596902871	264.753260953742	1079.614560217194	557.635687957432	332.469599541105	1078.190394806621	488.045897346239	343.748365769001	1049.391689123073	416.415783433896	334.547107596898	958.817219312632	304.130984157179	281.917675562744	1002.312143091757	192.301007014692	355.799244644302	1152.897170469701	443.958181981332	576.395227165893	1035.297035705994	394.702871982757	636.491037098662	1032.061472309081	283.441067822127	590.225358525804	839.593693240486	208.467289776852	563.001921427841	1010.582196924265	156.275499371134	603.900187007577	900.187544137230	147.310898100169	633.809603713282	1078.912426126741	44.291235803394	623.292435813675	870.214698583417	38.515036468110	394.959973626015	945.125547120297	35.926210501667	314.626056145209	1027.908029366051	96.225623231727	343.481690995879	1157.141562654559	42.854119790002	315.698297433149	1034.645381698708	1091.704277805106	122.526552635119	1198.724929086001	888.129996031224	143.107959890188	1010.000085563666	1091.778310676102	712.640275787934	1201.967704896405	920.721471573830	674.024855690373	
